<?xml version="1.0" standalone="no"?>
<!DOCTYPE svg PUBLIC "-//W3C//DTD SVG 20010904//EN"
 "http://www.w3.org/TR/2001/REC-SVG-20010904/DTD/svg10.dtd">
<svg version="1.0" xmlns="http://www.w3.org/2000/svg"
 width="2965.000000pt" height="2965.000000pt" viewBox="0 0 2965.000000 2965.000000"
 preserveAspectRatio="xMidYMid meet">
<metadata>
Created by potrace 1.14, written by Peter Selinger 2001-2017
</metadata>
<g transform="translate(0.000000,2965.000000) scale(0.100000,-0.100000)"
fill="#000000" stroke="none">
<path d="M4240 23206 c-319 -67 -618 -293 -757 -571 -75 -148 -177 -548 -217
-845 -5 -40 -16 -121 -21 -165 -40 -330 -40 -1080 0 -1355 2 -14 6 -54 10 -90
46 -476 200 -1190 372 -1715 351 -1079 1050 -1950 2043 -2547 334 -201 798
-410 1090 -491 111 -31 371 -31 486 1 159 43 302 117 422 220 54 46 432 489
489 572 188 277 224 645 93 960 -64 154 -106 206 -425 530 -600 609 -1402
1476 -1629 1760 -397 496 -623 964 -725 1500 -35 186 -57 402 -76 725 -19 339
-38 495 -82 670 -107 432 -366 740 -698 831 -81 22 -290 27 -375 10z m182
-936 c55 -110 75 -244 103 -700 24 -384 50 -599 102 -845 140 -673 459 -1304
960 -1897 275 -327 1059 -1170 1544 -1663 163 -165 301 -310 308 -322 14 -28
14 -88 -1 -116 -13 -26 -321 -394 -350 -419 -35 -31 -83 -38 -141 -21 -89 26
-321 120 -469 192 -411 196 -774 448 -1087 755 -361 355 -616 726 -811 1181
-213 496 -419 1384 -470 2030 -6 77 -13 160 -15 185 -9 85 -5 586 5 715 25
326 75 612 145 833 24 75 30 86 73 117 26 19 54 34 62 32 8 -1 27 -27 42 -57z"/>
<path d="M25075 23206 c-177 -41 -308 -117 -439 -256 -157 -167 -272 -408
-325 -683 -22 -115 -47 -338 -56 -512 -3 -60 -7 -135 -10 -165 -2 -30 -7 -95
-10 -145 -51 -760 -284 -1350 -779 -1969 -222 -278 -950 -1065 -1575 -1704
-190 -194 -361 -374 -379 -400 -51 -70 -128 -236 -154 -332 -20 -74 -23 -107
-22 -260 0 -161 2 -182 27 -265 32 -104 82 -214 128 -282 59 -87 420 -512 488
-574 130 -119 296 -203 481 -241 123 -26 325 -21 442 10 161 43 470 168 713
288 1074 529 1876 1378 2303 2439 229 570 450 1530 497 2165 4 47 9 96 11 110
16 101 23 603 12 855 -23 510 -139 1099 -266 1350 -130 259 -380 462 -679 551
-109 32 -311 42 -408 20z m248 -907 c37 -24 50 -41 66 -85 46 -120 116 -450
136 -634 3 -30 10 -98 15 -150 18 -167 23 -573 11 -780 -33 -561 -134 -1133
-301 -1710 -136 -470 -312 -848 -554 -1194 -237 -337 -574 -671 -933 -922
-248 -174 -629 -375 -924 -488 -162 -62 -201 -70 -245 -51 -34 14 -371 407
-392 457 -30 70 -26 75 337 447 537 551 876 914 1362 1457 527 588 854 1142
1038 1759 93 310 154 679 176 1060 3 55 7 127 10 160 3 33 7 103 10 155 8 131
22 251 41 340 18 84 71 210 89 210 6 0 32 -14 58 -31z"/>
<path d="M1771 17569 c-186 -36 -328 -117 -500 -283 -312 -303 -495 -695 -556
-1193 -13 -106 -14 -627 -1 -698 3 -16 10 -73 16 -125 47 -385 182 -909 371
-1440 85 -238 249 -649 296 -745 324 -648 1136 -1091 2453 -1339 313 -59 836
-129 1125 -151 44 -3 96 -8 115 -10 19 -2 80 -7 135 -10 55 -3 114 -8 130 -10
17 -2 100 -6 185 -10 85 -4 171 -9 190 -11 19 -3 285 -7 590 -11 401 -4 576
-2 629 6 337 53 610 354 722 798 112 444 46 884 -185 1228 -94 140 -290 311
-449 391 -84 43 -226 94 -347 124 -235 60 -489 90 -975 115 -208 11 -285 15
-445 25 -157 10 -199 13 -315 26 -352 38 -602 106 -750 206 -99 67 -311 256
-474 424 -287 294 -511 603 -676 932 -139 277 -204 471 -254 753 -36 205 -134
454 -246 626 -66 101 -197 233 -278 282 -158 94 -348 131 -506 100z m127
-1022 c17 -46 38 -126 46 -178 123 -715 544 -1479 1165 -2113 313 -319 577
-535 776 -633 303 -151 752 -245 1330 -278 55 -3 134 -7 175 -10 41 -2 127 -7
190 -10 565 -26 872 -68 1033 -139 190 -84 276 -316 218 -591 -23 -109 -53
-181 -78 -186 -42 -10 -980 4 -1088 16 -16 2 -91 6 -165 10 -74 3 -153 8 -175
10 -22 2 -78 7 -125 10 -47 3 -152 12 -235 20 -511 51 -1009 131 -1370 221
-633 158 -1120 396 -1322 647 -73 90 -100 145 -206 412 -476 1201 -607 2055
-396 2585 44 109 161 290 188 290 5 0 23 -37 39 -83z"/>
<path d="M27610 17565 c-143 -31 -259 -95 -372 -203 -82 -79 -175 -208 -233
-321 -61 -123 -146 -373 -160 -472 -39 -283 -158 -607 -335 -914 -232 -404
-558 -785 -955 -1115 -162 -135 -310 -201 -555 -248 -224 -43 -444 -65 -885
-87 -60 -3 -146 -8 -190 -10 -44 -3 -129 -7 -190 -10 -60 -3 -126 -8 -145 -10
-19 -3 -66 -7 -105 -10 -335 -28 -665 -105 -855 -200 -373 -186 -607 -509
-687 -950 -23 -127 -23 -406 1 -540 86 -477 329 -812 666 -917 74 -23 80 -23
560 -23 430 0 849 9 950 20 19 2 89 6 155 10 66 3 140 8 165 10 50 5 127 11
240 20 77 7 478 50 540 59 19 3 100 15 180 26 934 133 1716 385 2198 707 156
104 255 186 381 319 167 175 250 313 381 639 343 851 533 1549 577 2122 16
195 8 546 -16 698 -72 476 -262 859 -569 1146 -126 118 -261 198 -412 243 -77
24 -249 29 -330 11z m239 -1002 c120 -160 173 -307 216 -598 8 -55 8 -345 0
-430 -47 -499 -199 -1057 -482 -1770 -131 -331 -147 -360 -268 -481 -120 -120
-233 -197 -440 -299 -275 -136 -581 -236 -1000 -329 -318 -71 -860 -152 -1210
-182 -44 -3 -87 -8 -95 -9 -8 -2 -64 -6 -125 -10 -60 -4 -117 -9 -125 -10 -8
-2 -82 -6 -165 -10 -82 -4 -161 -9 -175 -10 -118 -14 -1057 -25 -1089 -14 -43
16 -91 200 -91 346 0 202 73 349 207 417 97 48 251 84 483 110 156 17 299 28
565 41 316 15 321 16 515 30 536 40 911 127 1210 281 200 102 400 264 705 569
398 397 690 798 910 1250 143 292 238 566 290 838 37 187 83 337 104 337 5 0
32 -30 60 -67z"/>
<path d="M9920 15741 c-185 -59 -319 -195 -374 -380 -21 -71 -21 -220 0 -292
40 -137 38 -134 683 -781 l606 -608 -846 0 c-929 0 -897 2 -1029 -62 -88 -42
-195 -150 -238 -240 -36 -73 -62 -178 -62 -248 0 -194 127 -398 301 -484 143
-70 49 -67 1762 -63 1419 2 1546 4 1590 19 204 73 340 224 383 428 27 130 -2
285 -75 398 -17 26 -524 540 -1128 1143 -1176 1174 -1130 1131 -1272 1173 -75
22 -229 20 -301 -3z"/>
<path d="M19427 15745 c-77 -21 -154 -65 -230 -131 -40 -34 -540 -531 -1113
-1105 -963 -966 -1043 -1049 -1077 -1115 -159 -309 -20 -663 307 -783 l71 -26
1570 0 1570 0 70 22 c164 52 299 180 357 340 26 71 35 225 18 306 -36 174
-167 323 -347 395 l-68 27 -870 3 -869 3 591 592 c324 326 605 613 622 639 80
119 111 293 77 428 -49 195 -195 348 -385 404 -66 19 -225 20 -294 1z"/>
<path d="M11150 10811 c-93 -29 -177 -102 -219 -191 -25 -53 -26 -61 -25 -235
1 -198 14 -338 49 -550 172 -1024 771 -1953 1640 -2544 882 -599 1946 -815
3002 -610 1005 196 1917 799 2489 1649 400 594 614 1233 655 1962 14 264 -5
344 -106 437 -74 68 -123 86 -235 86 -89 0 -99 -2 -159 -35 -106 -57 -181
-177 -181 -289 0 -178 -100 -367 -271 -510 -443 -372 -1212 -483 -1859 -269
-292 97 -531 262 -660 455 -66 98 -89 167 -100 290 -12 134 -42 204 -117 273
-75 69 -144 93 -248 88 -188 -10 -307 -135 -325 -341 -4 -51 -13 -112 -20
-137 -28 -104 -117 -238 -218 -331 -427 -390 -1229 -518 -1885 -299 -240 80
-408 180 -557 329 -143 145 -195 248 -210 418 -12 137 -32 187 -104 259 -76
75 -144 104 -244 103 -37 0 -78 -4 -92 -8z m3925 -1420 c337 -251 738 -402
1212 -457 171 -20 582 -14 741 10 225 34 436 91 625 168 54 22 101 38 103 35
8 -8 -94 -204 -171 -329 -707 -1136 -2051 -1720 -3380 -1468 -893 170 -1688
720 -2160 1495 -58 96 -165 296 -165 309 0 3 33 -9 73 -26 235 -101 510 -170
790 -198 153 -16 564 -8 705 14 522 80 964 279 1275 577 l101 95 80 -79 c44
-43 121 -109 171 -146z"/>
<path d="M1115 10599 c-178 -17 -343 -98 -478 -235 -167 -169 -311 -373 -422
-599 -85 -172 -132 -303 -169 -466 -33 -147 -41 -239 -40 -429 5 -707 452
-1381 1285 -1939 287 -192 576 -313 944 -396 145 -32 402 -71 551 -82 139 -10
732 -10 889 0 742 49 1680 242 2525 519 157 51 243 89 565 245 209 102 452
222 540 268 88 45 259 133 380 195 329 169 721 378 800 427 582 362 778 1008
482 1587 -186 365 -535 618 -927 675 -90 13 -270 6 -365 -14 -119 -25 -257
-83 -394 -165 -253 -151 -646 -291 -1238 -439 -1035 -259 -2592 -497 -2960
-452 -285 35 -529 168 -799 436 -151 150 -222 235 -367 440 -108 153 -187 236
-283 298 -158 102 -329 144 -519 126z m131 -996 c164 -230 416 -508 604 -665
216 -182 490 -339 725 -417 231 -77 392 -102 645 -102 442 2 1382 130 2280
312 1057 214 1833 458 2215 695 109 68 135 77 198 72 183 -15 354 -245 308
-415 -16 -59 -68 -131 -135 -185 -81 -65 -580 -330 -1308 -695 -747 -374 -781
-387 -1240 -518 -589 -166 -1303 -308 -1723 -340 -44 -4 -85 -8 -92 -10 -26
-8 -311 -20 -493 -20 -679 0 -1132 114 -1505 381 -460 329 -712 628 -812 964
-34 115 -42 289 -19 413 28 148 89 294 183 442 43 66 110 155 118 155 2 0 25
-30 51 -67z"/>
<path d="M28350 10598 c-155 -17 -326 -98 -446 -210 -36 -34 -108 -122 -161
-196 -145 -204 -245 -325 -383 -462 -140 -139 -268 -235 -410 -309 -241 -125
-425 -150 -820 -110 -52 5 -120 12 -150 15 -424 41 -1258 177 -1835 300 -848
181 -1541 400 -1777 562 -207 142 -493 212 -743 182 -398 -48 -767 -314 -954
-688 -142 -284 -166 -631 -64 -916 62 -173 147 -303 297 -452 154 -153 217
-193 696 -447 416 -220 1044 -537 1439 -726 245 -118 389 -171 756 -277 771
-224 1537 -368 2183 -411 153 -10 749 -10 877 0 376 30 723 106 1019 224 172
68 295 131 446 230 720 473 1169 1046 1289 1648 89 448 0 930 -250 1350 -136
228 -327 460 -454 551 -159 113 -360 165 -555 142z m214 -1078 c211 -322 258
-645 137 -955 -40 -103 -132 -258 -214 -360 -136 -169 -393 -395 -630 -554
-263 -176 -594 -278 -1047 -322 -145 -14 -551 -18 -725 -6 -511 34 -1120 137
-1705 288 -351 91 -718 205 -837 260 -354 164 -1493 744 -1862 948 -108 60
-202 145 -237 216 -22 47 -26 65 -22 123 9 169 172 342 323 342 55 0 101 -18
185 -72 446 -286 1554 -599 2947 -832 421 -71 912 -136 1223 -162 41 -3 91 -8
110 -10 57 -6 370 -5 430 1 258 29 472 94 710 216 361 184 683 473 1001 896
l102 136 25 -29 c13 -16 52 -72 86 -124z"/>
</g>
</svg>
